<mxfile host="app.diagrams.net" agent="Mozilla/5.0 (Macintosh; Intel Mac OS X 10_15_7) AppleWebKit/537.36 (KHTML, like Gecko) Chrome/133.0.0.0 Safari/537.36" version="26.0.16">
  <diagram name="Page-1" id="_ePb_NF_5axIkKq-z6US">
    <mxGraphModel dx="915" dy="699" grid="1" gridSize="10" guides="1" tooltips="1" connect="1" arrows="1" fold="1" page="1" pageScale="1" pageWidth="850" pageHeight="1100" math="0" shadow="0">
      <root>
        <mxCell id="0" />
        <mxCell id="1" parent="0" />
        <mxCell id="0TDCZGXjZk4ch2UJcuCi-8" value="" style="ellipse;html=1;shape=startState;fillColor=#000000;strokeColor=#ff0000;" parent="1" vertex="1">
          <mxGeometry x="340" y="30" width="30" height="30" as="geometry" />
        </mxCell>
        <mxCell id="0TDCZGXjZk4ch2UJcuCi-9" value="" style="edgeStyle=orthogonalEdgeStyle;html=1;verticalAlign=bottom;endArrow=open;endSize=8;strokeColor=#ff0000;rounded=0;" parent="1" source="0TDCZGXjZk4ch2UJcuCi-8" edge="1">
          <mxGeometry relative="1" as="geometry">
            <mxPoint x="355" y="90" as="targetPoint" />
          </mxGeometry>
        </mxCell>
        <mxCell id="0TDCZGXjZk4ch2UJcuCi-12" value="" style="edgeStyle=orthogonalEdgeStyle;rounded=0;orthogonalLoop=1;jettySize=auto;html=1;" parent="1" source="0TDCZGXjZk4ch2UJcuCi-10" target="0TDCZGXjZk4ch2UJcuCi-11" edge="1">
          <mxGeometry relative="1" as="geometry" />
        </mxCell>
        <mxCell id="0TDCZGXjZk4ch2UJcuCi-10" value="List of valid words for a hangman game&lt;div&gt;&lt;br&gt;&lt;/div&gt;" style="rounded=1;whiteSpace=wrap;html=1;" parent="1" vertex="1">
          <mxGeometry x="295" y="100" width="120" height="60" as="geometry" />
        </mxCell>
        <mxCell id="0TDCZGXjZk4ch2UJcuCi-14" value="" style="edgeStyle=orthogonalEdgeStyle;rounded=0;orthogonalLoop=1;jettySize=auto;html=1;" parent="1" source="0TDCZGXjZk4ch2UJcuCi-11" target="0TDCZGXjZk4ch2UJcuCi-13" edge="1">
          <mxGeometry relative="1" as="geometry" />
        </mxCell>
        <mxCell id="0TDCZGXjZk4ch2UJcuCi-11" value="choose a random word from the list" style="whiteSpace=wrap;html=1;rounded=1;" parent="1" vertex="1">
          <mxGeometry x="295" y="240" width="120" height="60" as="geometry" />
        </mxCell>
        <mxCell id="0TDCZGXjZk4ch2UJcuCi-20" style="edgeStyle=orthogonalEdgeStyle;rounded=0;orthogonalLoop=1;jettySize=auto;html=1;entryX=0.5;entryY=0;entryDx=0;entryDy=0;" parent="1" source="0TDCZGXjZk4ch2UJcuCi-13" target="0TDCZGXjZk4ch2UJcuCi-18" edge="1">
          <mxGeometry relative="1" as="geometry">
            <mxPoint x="355" y="490" as="targetPoint" />
          </mxGeometry>
        </mxCell>
        <mxCell id="0TDCZGXjZk4ch2UJcuCi-13" value="ask user to guess the letters" style="whiteSpace=wrap;html=1;rounded=1;" parent="1" vertex="1">
          <mxGeometry x="277.5" y="380" width="155" height="60" as="geometry" />
        </mxCell>
        <mxCell id="0TDCZGXjZk4ch2UJcuCi-17" value="&lt;h1 style=&quot;margin-top: 0px;&quot;&gt;Variables&lt;/h1&gt;&lt;div&gt;1. dict_chosen_word&lt;/div&gt;&lt;div&gt;2. max_wrong_guesses&lt;/div&gt;&lt;div&gt;3. placeholder_word = ______&lt;/div&gt;" style="text;html=1;whiteSpace=wrap;overflow=hidden;rounded=0;" parent="1" vertex="1">
          <mxGeometry x="20" y="140" width="180" height="120" as="geometry" />
        </mxCell>
        <mxCell id="0TDCZGXjZk4ch2UJcuCi-26" style="edgeStyle=orthogonalEdgeStyle;rounded=0;orthogonalLoop=1;jettySize=auto;html=1;" parent="1" source="0TDCZGXjZk4ch2UJcuCi-18" edge="1">
          <mxGeometry relative="1" as="geometry">
            <mxPoint x="220" y="500" as="targetPoint" />
          </mxGeometry>
        </mxCell>
        <mxCell id="0TDCZGXjZk4ch2UJcuCi-29" style="edgeStyle=orthogonalEdgeStyle;rounded=0;orthogonalLoop=1;jettySize=auto;html=1;" parent="1" source="0TDCZGXjZk4ch2UJcuCi-18" edge="1">
          <mxGeometry relative="1" as="geometry">
            <mxPoint x="500" y="500" as="targetPoint" />
          </mxGeometry>
        </mxCell>
        <mxCell id="0TDCZGXjZk4ch2UJcuCi-18" value="correct guess" style="rhombus;whiteSpace=wrap;html=1;" parent="1" vertex="1">
          <mxGeometry x="315" y="460" width="80" height="80" as="geometry" />
        </mxCell>
        <mxCell id="0TDCZGXjZk4ch2UJcuCi-27" value="No" style="text;html=1;align=center;verticalAlign=middle;whiteSpace=wrap;rounded=0;" parent="1" vertex="1">
          <mxGeometry x="240" y="470" width="60" height="30" as="geometry" />
        </mxCell>
        <mxCell id="0TDCZGXjZk4ch2UJcuCi-28" value="Yes" style="text;html=1;align=center;verticalAlign=middle;whiteSpace=wrap;rounded=0;" parent="1" vertex="1">
          <mxGeometry x="415" y="470" width="60" height="30" as="geometry" />
        </mxCell>
        <mxCell id="0TDCZGXjZk4ch2UJcuCi-39" style="edgeStyle=orthogonalEdgeStyle;rounded=0;orthogonalLoop=1;jettySize=auto;html=1;" parent="1" source="0TDCZGXjZk4ch2UJcuCi-30" edge="1">
          <mxGeometry relative="1" as="geometry">
            <mxPoint x="560" y="630" as="targetPoint" />
          </mxGeometry>
        </mxCell>
        <mxCell id="0TDCZGXjZk4ch2UJcuCi-42" style="edgeStyle=orthogonalEdgeStyle;rounded=0;orthogonalLoop=1;jettySize=auto;html=1;entryX=1;entryY=0.25;entryDx=0;entryDy=0;" parent="1" source="0TDCZGXjZk4ch2UJcuCi-30" target="0TDCZGXjZk4ch2UJcuCi-13" edge="1">
          <mxGeometry relative="1" as="geometry">
            <mxPoint x="560" y="400" as="targetPoint" />
            <Array as="points">
              <mxPoint x="560" y="395" />
            </Array>
          </mxGeometry>
        </mxCell>
        <mxCell id="0TDCZGXjZk4ch2UJcuCi-30" value="all letters found" style="rhombus;whiteSpace=wrap;html=1;" parent="1" vertex="1">
          <mxGeometry x="500" y="455" width="120" height="90" as="geometry" />
        </mxCell>
        <mxCell id="0TDCZGXjZk4ch2UJcuCi-34" style="edgeStyle=orthogonalEdgeStyle;rounded=0;orthogonalLoop=1;jettySize=auto;html=1;" parent="1" source="0TDCZGXjZk4ch2UJcuCi-31" edge="1">
          <mxGeometry relative="1" as="geometry">
            <mxPoint x="150" y="630" as="targetPoint" />
          </mxGeometry>
        </mxCell>
        <mxCell id="0TDCZGXjZk4ch2UJcuCi-35" style="edgeStyle=orthogonalEdgeStyle;rounded=0;orthogonalLoop=1;jettySize=auto;html=1;entryX=0;entryY=0.5;entryDx=0;entryDy=0;" parent="1" source="0TDCZGXjZk4ch2UJcuCi-31" target="0TDCZGXjZk4ch2UJcuCi-13" edge="1">
          <mxGeometry relative="1" as="geometry">
            <Array as="points">
              <mxPoint x="150" y="410" />
            </Array>
          </mxGeometry>
        </mxCell>
        <mxCell id="0TDCZGXjZk4ch2UJcuCi-31" value="wrong_count == max_wrong_count" style="rhombus;whiteSpace=wrap;html=1;" parent="1" vertex="1">
          <mxGeometry x="80" y="445" width="140" height="110" as="geometry" />
        </mxCell>
        <mxCell id="0TDCZGXjZk4ch2UJcuCi-36" value="No" style="text;html=1;align=center;verticalAlign=middle;whiteSpace=wrap;rounded=0;" parent="1" vertex="1">
          <mxGeometry x="160" y="380" width="60" height="30" as="geometry" />
        </mxCell>
        <mxCell id="0TDCZGXjZk4ch2UJcuCi-37" value="Yes" style="text;html=1;align=center;verticalAlign=middle;whiteSpace=wrap;rounded=0;" parent="1" vertex="1">
          <mxGeometry x="100" y="570" width="60" height="30" as="geometry" />
        </mxCell>
        <mxCell id="0TDCZGXjZk4ch2UJcuCi-38" value="Dead" style="ellipse;whiteSpace=wrap;html=1;" parent="1" vertex="1">
          <mxGeometry x="90" y="630" width="120" height="80" as="geometry" />
        </mxCell>
        <mxCell id="0TDCZGXjZk4ch2UJcuCi-40" value="Live" style="ellipse;whiteSpace=wrap;html=1;" parent="1" vertex="1">
          <mxGeometry x="500" y="630" width="120" height="80" as="geometry" />
        </mxCell>
        <mxCell id="0TDCZGXjZk4ch2UJcuCi-43" value="No&lt;div&gt;&lt;br&gt;&lt;/div&gt;" style="text;html=1;align=center;verticalAlign=middle;whiteSpace=wrap;rounded=0;" parent="1" vertex="1">
          <mxGeometry x="470" y="370" width="60" height="30" as="geometry" />
        </mxCell>
        <mxCell id="0TDCZGXjZk4ch2UJcuCi-47" value="wrong_count--" style="text;html=1;align=center;verticalAlign=middle;whiteSpace=wrap;rounded=0;" parent="1" vertex="1">
          <mxGeometry x="230" y="500" width="85" height="30" as="geometry" />
        </mxCell>
        <mxCell id="0TDCZGXjZk4ch2UJcuCi-48" value="Update the dictionary" style="text;html=1;align=center;verticalAlign=middle;whiteSpace=wrap;rounded=0;" parent="1" vertex="1">
          <mxGeometry x="400" y="510" width="100" height="30" as="geometry" />
        </mxCell>
        <mxCell id="D1EaYxI0F4b7vYdQvLTQ-1" value="Yes" style="text;html=1;align=center;verticalAlign=middle;whiteSpace=wrap;rounded=0;" vertex="1" parent="1">
          <mxGeometry x="560" y="570" width="60" height="30" as="geometry" />
        </mxCell>
      </root>
    </mxGraphModel>
  </diagram>
</mxfile>
